<svg version="1.1" id="Layer_1" xmlns="http://www.w3.org/2000/svg" xmlns:xlink="http://www.w3.org/1999/xlink" x="0px" y="0px"
	 width="100%" viewBox="0 0 500 500" enable-background="new 0 0 500 500" xml:space="preserve">
<path fill="#FEFEFE" opacity="1.000000" stroke="none" 
	d="
M296.000000,501.000000 
	C197.333359,501.000000 99.166710,501.000000 1.000053,501.000000 
	C1.000035,334.333405 1.000035,167.666794 1.000018,1.000142 
	C167.666565,1.000095 334.333130,1.000095 500.999756,1.000047 
	C500.999847,167.666519 500.999847,334.333038 500.999939,500.999786 
	C432.833344,501.000000 364.666656,501.000000 296.000000,501.000000 
M87.973671,264.503723 
	C98.390953,294.246918 113.393234,321.601074 131.261902,347.452057 
	C160.664978,389.990173 196.393845,426.144836 239.694199,454.616943 
	C250.942673,462.013336 251.048645,462.011627 262.082764,454.584045 
	C325.679810,411.773895 373.510223,355.460846 405.501923,285.862671 
	C418.228485,258.175934 425.542877,229.195404 423.148285,198.271881 
	C419.501678,151.180023 400.195312,111.591515 363.645020,82.065247 
	C307.866943,37.006271 245.362686,28.167507 179.529541,56.367687 
	C98.850250,90.927330 58.697231,180.918442 87.973671,264.503723 
z"/>
<path fill="#FC7702" opacity="1.000000" stroke="none" 
	d="
M87.877975,264.120056 
	C58.697231,180.918442 98.850250,90.927330 179.529541,56.367687 
	C245.362686,28.167507 307.866943,37.006271 363.645020,82.065247 
	C400.195312,111.591515 419.501678,151.180023 423.148285,198.271881 
	C425.542877,229.195404 418.228485,258.175934 405.501923,285.862671 
	C373.510223,355.460846 325.679810,411.773895 262.082764,454.584045 
	C251.048645,462.011627 250.942673,462.013336 239.694199,454.616943 
	C196.393845,426.144836 160.664978,389.990173 131.261902,347.452057 
	C113.393234,321.601074 98.390953,294.246918 87.877975,264.120056 
M304.613403,328.107971 
	C314.733154,322.078766 325.492065,316.901794 334.862457,309.873535 
	C376.395477,278.721619 394.699280,220.079208 378.664978,171.586945 
	C352.684082,93.013245 261.861481,56.460640 188.393494,95.009964 
	C117.341530,132.291580 95.826782,219.524826 142.006943,283.967743 
	C177.630493,333.679321 245.193665,353.399384 304.613403,328.107971 
z"/>
<path fill="#FEFDFB" opacity="1.000000" stroke="none" 
	d="
M304.264404,328.269409 
	C245.193665,353.399384 177.630493,333.679321 142.006943,283.967743 
	C95.826782,219.524826 117.341530,132.291580 188.393494,95.009964 
	C261.861481,56.460640 352.684082,93.013245 378.664978,171.586945 
	C394.699280,220.079208 376.395477,278.721619 334.862457,309.873535 
	C325.492065,316.901794 314.733154,322.078766 304.264404,328.269409 
M313.313904,184.478622 
	C321.550781,175.777695 329.840027,167.124924 337.952332,158.309357 
	C338.871948,157.310013 338.796326,155.394791 339.182220,153.904266 
	C337.847992,154.396164 336.190308,154.540573 335.230225,155.434357 
	C326.769653,163.310913 318.456726,171.345795 310.032288,179.261688 
	C308.886597,180.338226 307.366852,181.016678 306.012207,181.090012 
	C305.997040,180.037125 305.981873,178.984222 306.257233,177.335098 
	C314.633301,168.979980 323.040771,160.655869 331.350372,152.235168 
	C332.549255,151.020233 333.277557,149.340927 334.223663,147.876511 
	C333.810120,147.491180 333.396576,147.105850 332.983032,146.720520 
	C331.584778,147.648407 330.071991,148.442581 328.807098,149.526108 
	C321.341064,155.921478 313.937469,162.389664 306.501801,168.820602 
	C304.490265,170.560333 302.516144,172.361969 300.358032,173.901352 
	C299.778717,174.314590 298.585693,173.867401 297.674408,173.815186 
	C297.732086,172.916595 297.492096,171.829529 297.914734,171.162048 
	C298.608612,170.066284 299.700897,169.208359 300.680023,168.309906 
	C308.782043,160.875397 316.957947,153.519440 324.950439,145.969238 
	C326.367767,144.630356 327.037659,142.500275 327.863617,140.378296 
	C327.689850,140.156662 327.465546,140.015244 326.447357,139.966568 
	C311.187073,148.987259 297.150848,159.609039 285.041656,172.580109 
	C280.826202,177.095596 278.613678,182.944550 279.519043,189.162445 
	C280.322693,194.681641 278.406494,198.458282 274.362885,201.778290 
	C271.664398,203.993835 269.221344,206.518860 266.642273,208.881668 
	C261.536957,213.558884 256.416595,218.219681 251.044983,223.122253 
	C242.278244,214.895493 233.795975,207.157837 225.667114,199.065155 
	C224.464157,197.867554 224.657639,194.989700 224.679047,192.894058 
	C224.734146,187.497360 226.250931,181.821335 225.056885,176.758530 
	C220.576523,157.761185 195.730789,139.175705 176.156113,139.341599 
	C165.064087,139.435608 158.752670,145.724564 159.040939,156.878799 
	C159.391953,170.461060 165.906494,181.500916 174.818253,191.027588 
	C184.757553,201.652740 196.321487,209.000839 212.030334,205.203979 
	C213.516800,204.844666 215.914062,205.534912 216.989090,206.624924 
	C225.148071,214.897415 233.082748,223.391144 241.344376,232.086426 
	C239.017578,234.276718 237.136703,236.113922 235.185699,237.873352 
	C218.980743,252.486984 202.713043,267.031830 186.613266,281.760284 
	C184.647537,283.558563 182.887085,286.140717 182.217422,288.673218 
	C181.028015,293.171295 183.708084,297.703156 187.889450,299.848450 
	C192.384659,302.154785 197.101105,301.220734 200.954330,297.014832 
	C211.981155,284.978760 222.917435,272.859772 233.940414,260.820160 
	C239.510040,254.736862 245.190048,248.754593 250.903503,242.637390 
	C252.208252,243.878815 253.099182,244.627701 253.876175,245.480408 
	C269.245087,262.347260 284.632874,279.197144 299.932434,296.126740 
	C303.045837,299.571899 306.528564,301.887909 311.283936,300.799561 
	C315.467102,299.842163 318.373932,297.169495 319.536194,292.938446 
	C320.662964,288.836517 319.384613,285.505890 316.233856,282.641205 
	C298.856567,266.841583 281.548767,250.965607 264.170105,235.167526 
	C263.097809,234.192749 261.623810,233.659760 260.140137,232.808411 
	C268.139069,224.353378 275.085754,217.185181 281.819214,209.821991 
	C285.367584,205.941772 289.286499,204.146332 294.659027,205.071030 
	C302.409576,206.405029 309.564301,204.085846 314.794434,198.520630 
	C325.145996,187.505890 334.911865,175.938004 344.790588,164.487259 
	C345.522003,163.639465 345.217865,161.898285 345.395172,160.572403 
	C344.089630,161.085785 342.457794,161.263123 341.529266,162.164764 
	C332.696167,170.742218 323.982422,179.442520 314.522614,187.963593 
	C314.026031,187.004730 313.529449,186.045883 313.313904,184.478622 
M193.716446,135.209732 
	C193.569077,136.119873 193.049652,137.678299 193.331711,137.840179 
	C196.243698,139.511383 198.844009,140.210526 202.465668,138.296158 
	C237.354172,119.854462 271.794434,121.018967 305.311676,141.855011 
	C309.573120,144.504135 312.119690,144.065735 314.853241,140.473831 
	C286.936493,116.451790 235.253143,108.638832 193.716446,135.209732 
M158.380692,252.106308 
	C163.489792,263.247314 170.398773,273.076508 179.644272,281.672089 
	C181.271515,279.924438 182.694504,278.396149 184.200790,276.778381 
	C182.869827,275.313263 181.853165,274.221252 180.865860,273.103302 
	C159.051697,248.401810 152.062088,220.062393 160.694229,188.237946 
	C162.111298,183.013550 161.025955,179.477005 157.833282,175.656555 
	C148.565247,194.797287 146.370651,225.060684 158.380692,252.106308 
M334.730865,254.107452 
	C329.353210,261.843262 323.975525,269.579041 318.709930,277.153625 
	C319.750671,278.452148 321.044006,280.065735 322.321960,281.660217 
	C355.729004,250.665497 358.147583,201.782211 343.545135,175.389542 
	C339.980255,178.303391 339.247620,181.471405 340.735962,186.163376 
	C348.069733,209.283096 346.005768,231.778397 334.730865,254.107452 
M235.745377,308.838470 
	C256.690033,311.758270 276.703430,308.842865 295.948181,299.668793 
	C291.879242,294.225067 291.895264,294.267700 286.541992,296.278442 
	C262.965363,305.134338 239.309555,305.289124 215.810303,296.250641 
	C211.121597,294.447235 208.311111,294.967346 205.603546,300.784943 
	C215.493271,303.459503 225.184708,306.080414 235.745377,308.838470 
z"/>
<path fill="#FB7806" opacity="1.000000" stroke="none" 
	d="
M315.234344,188.107513 
	C323.982422,179.442520 332.696167,170.742218 341.529266,162.164764 
	C342.457794,161.263123 344.089630,161.085785 345.395172,160.572418 
	C345.217865,161.898285 345.522003,163.639465 344.790588,164.487259 
	C334.911865,175.938004 325.145996,187.505890 314.794434,198.520630 
	C309.564301,204.085846 302.409576,206.405029 294.659027,205.071030 
	C289.286499,204.146332 285.367584,205.941772 281.819214,209.821991 
	C275.085754,217.185181 268.139069,224.353378 260.140137,232.808411 
	C261.623810,233.659760 263.097809,234.192749 264.170105,235.167526 
	C281.548767,250.965607 298.856567,266.841583 316.233856,282.641205 
	C319.384613,285.505890 320.662964,288.836517 319.536194,292.938446 
	C318.373932,297.169495 315.467102,299.842163 311.283936,300.799561 
	C306.528564,301.887909 303.045837,299.571899 299.932434,296.126740 
	C284.632874,279.197144 269.245087,262.347260 253.876175,245.480408 
	C253.099182,244.627701 252.208252,243.878815 250.903503,242.637390 
	C245.190048,248.754593 239.510040,254.736862 233.940414,260.820160 
	C222.917435,272.859772 211.981155,284.978760 200.954330,297.014832 
	C197.101105,301.220734 192.384659,302.154785 187.889450,299.848450 
	C183.708084,297.703156 181.028015,293.171295 182.217422,288.673218 
	C182.887085,286.140717 184.647537,283.558563 186.613266,281.760284 
	C202.713043,267.031830 218.980743,252.486984 235.185699,237.873352 
	C237.136703,236.113922 239.017578,234.276718 241.344376,232.086426 
	C233.082748,223.391144 225.148071,214.897415 216.989090,206.624924 
	C215.914062,205.534912 213.516800,204.844666 212.030334,205.203979 
	C196.321487,209.000839 184.757553,201.652740 174.818253,191.027588 
	C165.906494,181.500916 159.391953,170.461060 159.040939,156.878799 
	C158.752670,145.724564 165.064087,139.435608 176.156113,139.341599 
	C195.730789,139.175705 220.576523,157.761185 225.056885,176.758530 
	C226.250931,181.821335 224.734146,187.497360 224.679047,192.894058 
	C224.657639,194.989700 224.464157,197.867554 225.667114,199.065155 
	C233.795975,207.157837 242.278244,214.895493 251.044983,223.122253 
	C256.416595,218.219681 261.536957,213.558884 266.642273,208.881668 
	C269.221344,206.518860 271.664398,203.993835 274.362885,201.778290 
	C278.406494,198.458282 280.322693,194.681641 279.519043,189.162445 
	C278.613678,182.944550 280.826202,177.095596 285.041656,172.580109 
	C297.150848,159.609039 311.187073,148.987259 326.911713,140.140472 
	C327.549377,140.538696 327.774902,140.679092 328.052704,140.735550 
	C327.037659,142.500275 326.367767,144.630356 324.950439,145.969238 
	C316.957947,153.519440 308.782043,160.875397 300.680023,168.309906 
	C299.700897,169.208359 298.608612,170.066284 297.914734,171.162048 
	C297.492096,171.829529 297.732086,172.916595 297.674377,173.815186 
	C298.585693,173.867401 299.778717,174.314590 300.358032,173.901352 
	C302.516144,172.361969 304.490265,170.560333 306.501801,168.820602 
	C313.937469,162.389664 321.341064,155.921478 328.807098,149.526108 
	C330.071991,148.442581 331.584778,147.648407 332.983032,146.720520 
	C333.396576,147.105850 333.810120,147.491180 334.223663,147.876511 
	C333.277557,149.340927 332.549255,151.020233 331.350372,152.235168 
	C323.040771,160.655869 314.633301,168.979980 305.804718,177.763916 
	C304.054871,179.697128 303.098877,181.139633 306.020325,181.879456 
	C307.366852,181.016678 308.886597,180.338226 310.032288,179.261688 
	C318.456726,171.345795 326.769653,163.310913 335.230225,155.434357 
	C336.190308,154.540573 337.847992,154.396164 339.182220,153.904266 
	C338.796326,155.394791 338.871948,157.310013 337.952332,158.309357 
	C329.840027,167.124924 321.550781,175.777695 312.869446,184.900543 
	C312.266998,186.571411 312.108978,187.820343 311.950989,189.069305 
	C313.045441,188.748703 314.139893,188.428116 315.234344,188.107513 
z"/>
<path fill="#F97B0F" opacity="1.000000" stroke="none" 
	d="
M194.040192,135.041046 
	C235.253143,108.638832 286.936493,116.451790 314.853271,140.473938 
	C312.119690,144.065735 309.573120,144.504135 305.311676,141.855011 
	C271.794434,121.018967 237.354172,119.854462 202.465668,138.296158 
	C198.844009,140.210526 196.243698,139.511383 193.331711,137.840179 
	C193.049652,137.678299 193.569077,136.119873 194.040192,135.041046 
z"/>
<path fill="#F97A0E" opacity="1.000000" stroke="none" 
	d="
M158.231110,251.755737 
	C146.370651,225.060684 148.565247,194.797287 157.833282,175.656555 
	C161.025955,179.477005 162.111298,183.013550 160.694229,188.237946 
	C152.062088,220.062393 159.051697,248.401810 180.865860,273.103302 
	C181.853165,274.221252 182.869827,275.313263 184.200790,276.778381 
	C182.694504,278.396149 181.271515,279.924438 179.644272,281.672089 
	C170.398773,273.076508 163.489792,263.247314 158.231110,251.755737 
z"/>
<path fill="#F97A0D" opacity="1.000000" stroke="none" 
	d="
M334.904785,253.776901 
	C346.005768,231.778397 348.069733,209.283096 340.735962,186.163376 
	C339.247620,181.471405 339.980255,178.303391 343.539246,175.388077 
	C358.147583,201.782211 355.729004,250.665497 322.321960,281.660217 
	C321.044006,280.065735 319.750671,278.452148 318.709930,277.153625 
	C323.975525,269.579041 329.353210,261.843262 334.904785,253.776901 
z"/>
<path fill="#FA7A0E" opacity="1.000000" stroke="none" 
	d="
M235.310760,308.769897 
	C225.184708,306.080414 215.493271,303.459503 205.603546,300.784943 
	C208.311111,294.967346 211.121597,294.447235 215.810303,296.250641 
	C239.309555,305.289124 262.965363,305.134338 286.541992,296.278442 
	C291.895264,294.267700 291.879242,294.225067 295.948181,299.668793 
	C276.703430,308.842865 256.690033,311.758270 235.310760,308.769897 
z"/>
<path fill="#FCF3E8" opacity="1.000000" stroke="none" 
	d="
M314.878479,188.035553 
	C314.139893,188.428116 313.045441,188.748703 311.950989,189.069305 
	C312.108978,187.820343 312.266998,186.571411 312.728943,185.204742 
	C313.529449,186.045883 314.026031,187.004730 314.878479,188.035553 
z"/>
<path fill="#FBEEDE" opacity="1.000000" stroke="none" 
	d="
M306.016266,181.484741 
	C303.098877,181.139633 304.054871,179.697128 305.659454,178.062042 
	C305.981873,178.984222 305.997040,180.037125 306.016266,181.484741 
z"/>
<path fill="#FCF2E6" opacity="1.000000" stroke="none" 
	d="
M327.958160,140.556915 
	C327.774902,140.679092 327.549377,140.538696 327.283386,140.134186 
	C327.465546,140.015244 327.689850,140.156662 327.958160,140.556915 
z"/>
</svg>